<?xml version="1.0" encoding="UTF-8"?>
<svg id="Calque_1" data-name="Calque 1" xmlns="http://www.w3.org/2000/svg" viewBox="0 0 913.27 422.33">
  <defs>
    <style>
      .cls-1 {
        fill: #174195;
      }
    </style>
  </defs>
  <path class="cls-1" d="M387,255.01l-9.84.15-5.15,9.83c3.2,2.79,12.53-7.73,14.99-9.98Z"/>
  <path class="cls-1" d="M352,325v-54h-16.5l-9.51,37-10.49-37h-16.5v52.5c0,.21-1.5,1.13-1,1.49h11s0-39.99,0-39.99c1.57.19,2.15,3.67,2.52,4.99,1.3,4.62,6.97,33.55,8.43,34.57l10.58-.53,10.48-39.02v40h11Z"/>
  <path class="cls-1" d="M466.99,298.5c13.21-4.74,12.75-25.53-2.49-27.5-6.59-.85-14.72.63-21.5,0v54h11v-23c16.25-.83,8.89,12.66,12.11,22.89l10.89.1c-2.87-9.76,3.48-23.69-10.01-26.49ZM454,295v-16c15.61-2.8,14.49,18.09,0,16Z"/>
  <path class="cls-1" d="M520.01,276.49c-4.33-6.08-14.5-6.39-21.27-5.25-5.63.95-8.21,3.84-10.02,8.98-2.71,7.7-3,30.63.72,37.84,6.07,11.77,29.33,10.42,32.88-3.24,2.23-8.58,2.79-31.15-2.31-38.32ZM512.03,310.52c-.17,1.54-1.26,5.26-2.28,6.21-1.59,1.49-5.73,1.72-7.73.74-5.42-2.44-4.71-26.15-3.78-31.74,1.75-10.49,12.39-9.6,13.7-1.18.8,5.1.68,20.62.09,25.96Z"/>
  <path class="cls-1" d="M613.21,278.29c-4.62-9.6-25.66-10.13-31.08-1.66-4.66,7.28-4.5,34.5-.33,42.08,4.8,8.7,22.26,9.56,28.86,2.96,7.01-7.02,6.67-34.8,2.55-43.37ZM601.74,316.74c-1.59,1.49-5.73,1.72-7.73.74-5.49-2.47-4.58-25.03-3.76-30.72,1.68-11.59,12.04-11.08,13.68-2.2,1.1,5.98,1.93,28.32-2.2,32.18Z"/>
  <path class="cls-1" d="M557.5,271h-22.5v54h11v-22c13.47,1.14,24.38-.35,24.08-16.49-.13-6.86-5.04-15.51-12.58-15.51ZM546,295v-16c17.06-3.33,17.08,19.59,0,16Z"/>
  <path class="cls-1" d="M270,279l-.16-6.35-1.34-1.65h-28.5v54h30v-8h-19v-16h17v-8h-17c.62-4.44-1.56-10.54,1.5-14h17.5Z"/>
  <polygon class="cls-1" points="674 317 674 301 690 301 691 293 674 293 674 279 692 279 692 271 663 271 663 325 693 325 692 317 674 317"/>
  <polygon class="cls-1" points="364 325 393 325 393 317 375 317 375 301 391 301 391 293 375 293 375 279 393 279 393 271 364 271 364 325"/>
  <polygon class="cls-1" points="435 271 399 271 398.99 280.01 412 280 412 325 423 325 423 280 435.01 280.01 435 271"/>
  <polygon class="cls-1" points="111 271 111 325 139 325 139 316 122 316 122 271 111 271"/>
  <polygon class="cls-1" points="638 271 627 271 627 325 655 325 655 316 638 316 638 271"/>
  <polygon class="cls-1" points="205 271 205 325 233 325 233 316 216 316 216 271 205 271"/>
  <polygon class="cls-1" points="180 271 169 271 169 325 197 325 197 316 180 316 180 271"/>
  <rect class="cls-1" x="146" y="271" width="11" height="54"/>
  <polygon class="cls-1" points="598 409 577.53 365.97 569 365 569 421 575 421 575 376 595.49 420.01 604 421 604 365 598 366.5 598 409"/>
  <path class="cls-1" d="M507.98,367.52c-1.4-1-6.74-2.33-8.48-2.52-5.19-.57-11.2.41-16.5,0v56h6v-27c20.04-2.76,16.92,10.73,17.14,25.36.76,2.31,3.92,1.6,5.86,1.64v-14.5c0-1.16-1.43-10.04-1.9-11.1-.97-2.2-2.46-2.52-4.1-3.9,7.91-2.93,8.07-19.64,1.98-23.98ZM489,389v-18l14,.5c8.6,12.59-.31,20.23-14,17.5Z"/>
  <path class="cls-1" d="M361.5,365c-4.93-.49-10.49.36-15.5,0v56h17.5c.97,0,6.64-2.39,7.84-3.16,9.07-5.87,7.92-29.41,6.4-39.08-1.52-9.66-7.08-12.84-16.24-13.76ZM373.05,395.55c-.66,16.73-3.25,21.16-21.05,20.45v-45c20.77-2.92,21.74,7.1,21.05,24.55Z"/>
  <polygon class="cls-1" points="137 390 117 390 117 366.5 111 365 111 421 117 421 117 395 137 395 137 421 143 421 143 365 137 365 137 390"/>
  <path class="cls-1" d="M232.06,365.44l-5.06-.44v41.5c0,8.32-10.54,13.75-17.37,8.37-.94-.74-3.63-4.72-3.63-5.37v-44.5h-6v44.5c0,.51,1.52,4.17,1.96,5.04,5.3,10.56,25.37,10.12,29.35-1.73,2.47-7.34,2.75-36.07,1.74-44.36-.13-1.07.04-2.31-.99-3.01Z"/>
  <path class="cls-1" d="M168.1,365.1l-17.1,55.89,5.9-.1,5.08-14.41,19.06-.03c4.05,5.82,1.23,16.88,10.95,14.53l-17.1-55.89h-6.8ZM163,401l8.5-27.01,8.5,27.01h-17Z"/>
  <path class="cls-1" d="M535.76,367.26l-16.76,53.73,5.86-.12,5.11-14.39c3.99-.32,17.9-1.9,19.95,1.09,1.29,1.89,3.51,12.85,4.2,13.3l5.87.12-17.14-55.85c-2.63-.44-6.04-.83-7.1,2.12ZM531,401l8.5-27.01,8.5,27.01h-17Z"/>
  <path class="cls-1" d="M286.98,379.52c-1.61-14.72,19.51-13.3,17.02.49h6.01c2.14-22.63-33.14-21.2-28.76,2.26,2.3,12.33,27.69,13.85,23.1,28.57-3.53,11.29-20.61,6.29-18.36-5.81l-5.97-1.02c-3.1,26.19,38.56,22.84,29.48-3-3.53-10.05-21.48-12.12-22.51-21.48Z"/>
  <path class="cls-1" d="M664,395h19v-5h-19v-19h18.5c1.98,0,1.99-6,0-6h-24.5v56h26v-5h-20v-21Z"/>
  <polygon class="cls-1" points="397 395 416 395 416 390 397 390 397 371 416 371 416 365 391 365 391 421 417 421 417 416 397 416 397 395"/>
  <path class="cls-1" d="M640.99,403.99c2.63,9.79-9.12,18.12-15.86,9.37-4.36-5.66-3.98-29.75-1.85-36.58,3.74-12,20.04-8.9,17.71,4.22h6.01c2.83-19.76-23.77-23.53-29.3-5.81-2.91,9.33-3.89,39.08,5.93,44.66,12.25,6.96,25.85-1.63,23.37-15.87h-6.01Z"/>
  <polygon class="cls-1" points="241 365 240.99 371.01 254 371 254 421 260 421 260 371 273.01 371.01 273 365 241 365"/>
  <path class="cls-1" d="M473.5,365h-22.5v56h5v-26h17v-5h-17v-19h17.5c1.98,0,1.99-6,0-6Z"/>
  <path class="cls-1" d="M319,403h17v-6h-15.5c-2.02,1.38-1.54,3.85-1.5,6Z"/>
  <path class="cls-1" d="M424.44,397.94l-.44,5.06h17l-.94-5.56c-2.79-.45-14.39-1.3-15.63.5Z"/>
  <path class="cls-1" d="M716.5,0H89l11.38,19.12c8.02,17.07,15.11,35.02,17.63,53.88,17.91-12.97,47.01-14.51,64.46.03,1.75,1.46,6.22,5.15,4.62,7.48l-14.59,13.47c-12.6-17.35-37.85-16.08-45.99,5.03-6.42,16.67-3,46.59,18.98,48.99,18.3,2,24.59-3.23,22.51-22.01h-19v-19h42v33.5c0,3.86-4.57,13.63-7.51,16.49-14.75,14.4-49.72,12.75-65.97,1l-12.35,35.68c-4.86,10.34-10.11,20.32-17.17,29.33h629.5c60.04-59.97,60.68-163.75-1-223ZM277.87,85.87c-11.05-.51-19.9.16-26.87,9.63-.65.88-4,6.6-4,7v62.5h-24v-98.5l1.5-1.5h21.5l.5,12c7.71-11.66,23.26-16.53,36.52-12.48l-5.15,21.36ZM385,121h-64c1.35,24.52,21.39,34.42,41.93,20.43,1.58-1.07,4.81-5.64,6.43-5.36l14.17,13.93c.69,1.61-7.08,7.38-8.63,8.41-24.05,15.94-60.33,10.89-72.76-17.05-17.09-38.42,8.2-91.81,55.08-76.08,13.64,4.58,27.77,21.69,27.77,36.23v19.5ZM488,86h-30.5c-.3,0-.77-1.27-1.5-1v80h-24v-80c-.73-.27-1.2,1-1.5,1h-30.5v-21h88v21ZM588,165h-23l-.49-6.99c-13.74,9.31-29.86,13.94-45.2,5.18-20.38-11.63-18.85-40.93,1-52.38,3.56-2.05,16.56-6.81,20.19-6.81h23.5c2.69-28.91-26.24-26.33-40.5-10.02l-14.48-14.48c17.68-21.95,64.62-24.19,76.17,4.81.46,1.14,2.81,8.71,2.81,9.19v71.5Z"/>
  <path class="cls-1" d="M796.5,0h-40.5c22.31,24.34,38.69,58.63,42.87,91.63,5.93,46.75-11.51,97.63-43.87,131.37h42.5c52.23-58.2,54.01-166.01-1-223Z"/>
  <path class="cls-1" d="M0,0c18.61,20.16,32.99,47.18,39.5,74,12.98,53.41-3.3,108.68-39.5,149h41.5c15.7-14.91,25.84-36.58,31.76-57.24C89.1,110.56,82.16,42.19,40.5,0H0Z"/>
  <path class="cls-1" d="M873.5,0h-41.5l5.95,5.79c50.06,60.48,51.3,152.86-1.44,212.21-1.82,2.05-3.96,3.1-5.51,4.99h42.5c11.6-10.99,20.11-25.24,25.98-40.02,23.36-58.75,18.52-135.47-25.98-182.98Z"/>
  <path class="cls-1" d="M535.1,125.6c-13.11,6.79-7.87,25.68,7.11,24.18,4.05-.4,22.79-9.26,22.79-12.29v-15.5h-18.5c-1.47,0-9.67,2.71-11.4,3.6Z"/>
  <path class="cls-1" d="M322,102h40c-.68-27.5-36.75-26.32-40,0Z"/>
</svg>